# Alias OBJ Model File
# Exported from SketchUp, (c) 2000-2005 @Last Software, Inc.
# File units = inches

mtllib tow.mtl

g Model

usemtl Gold
v -249.581 47 -810.752
vt 249.581 47
vn 0 0 -1
v 166.669 0 -810.752
vt -166.669 0
v -249.581 0 -810.752
vt 249.581 0
f 1/1/1 2/2/1 3/3/1
v 166.669 47 -810.752
vt -166.669 47
f 2/2/1 1/1/1 4/4/1

usemtl Navy
vt 810.752 0
vn 1 0 -2.24678e-016
v 166.669 47 -304.752
vt 304.752 47
v 166.669 0 -304.752
vt 304.752 0
f 2/5/2 5/6/2 6/7/2
vt 810.752 47
f 5/6/2 2/5/2 4/8/2

usemtl Gold
vt 166.669 47
vn 0 0 1
v -249.581 0 -304.752
vt -249.581 0
vt 166.669 0
f 5/9/3 7/10/3 6/11/3
v -249.581 47 -304.752
vt -249.581 47
f 7/10/3 5/9/3 8/12/3

usemtl Gold
vt -810.752 47
vn -1 0 2.80847e-016
vt -304.752 0
vt -304.752 47
f 1/13/4 7/14/4 8/15/4
vt -810.752 0
f 7/14/4 1/13/4 3/16/4

usemtl Gold
v 114.733 47 -675.014
vt 675.014 47
vn 1 0 0
v 114.733 120.5 -519.764
vt 519.764 120.5
v 114.733 47 -519.764
vt 519.764 47
f 9/17/5 10/18/5 11/19/5
v 114.733 120.5 -586.076
vt 586.076 120.5
f 10/18/5 9/17/5 12/20/5
v 114.733 120.5 -613.313
vt 613.313 120.5
f 12/20/5 9/17/5 13/21/5
v 114.733 897 -613.313
vt 613.313 897
f 12/20/5 13/21/5 14/22/5
v 114.733 120.5 -675.014
vt 675.014 120.5
f 13/21/5 9/17/5 15/23/5
v 114.733 897 -586.076
vt 586.076 897
f 14/22/5 16/24/5 12/20/5

usemtl SkyBlue
v 84.2166 47 -766.264
vt 766.264 47
v 84.2166 80.5 -675.014
vt 675.014 80.5
v 84.2166 47 -675.014
f 17/25/5 18/26/5 19/17/5
v 84.2166 80.5 -766.264
vt 766.264 80.5
f 18/26/5 17/25/5 20/27/5

usemtl Corrogated
v -24.5487 897 -469.576
vt -1.5343 29.3485
vn -3.45857e-016 1 -1.68766e-016
v -73.7336 897 -586.076
vt -4.60835 36.6298
v -73.7336 897 -469.576
vt -4.60835 29.3485
f 21/28/6 22/29/6 23/30/6
v -212.517 897 -613.313
vt -13.2823 38.3321
v -212.517 897 -586.076
vt -13.2823 36.6298
f 22/29/6 24/31/6 25/32/6
vt 7.17084 38.3321
f 24/31/6 22/29/6 14/33/6
v -24.5487 897 -586.076
vt -1.5343 36.6298
f 14/33/6 22/29/6 26/34/6
f 26/34/6 22/29/6 21/28/6
vt 7.17084 36.6298
f 14/33/6 26/34/6 16/35/6

usemtl Chartreuse
vt 212.517 897
vn 2.34866e-015 4.47605e-016 -1
v -169.6 120.5 -613.313
vt 169.6 120.5
v -212.517 120.5 -613.313
vt 212.517 120.5
f 24/36/7 27/37/7 28/38/7
v -169.6 866.602 -613.313
vt 169.6 866.602
f 27/37/7 24/36/7 29/39/7
v 70.6634 866.602 -613.313
vt -70.6634 866.602
f 29/39/7 24/36/7 30/40/7
vt -114.733 120.5
v 70.6634 120.5 -613.313
vt -70.6634 120.5
f 30/40/7 13/41/7 31/42/7
vt -114.733 897
f 13/41/7 30/40/7 14/43/7
f 14/43/7 30/40/7 24/36/7

usemtl Chartreuse
vt 114.733 897
vn -4.3728e-015 -1.33122e-015 1
v 70.6634 120.5 -586.076
vt 70.6634 120.5
vt 114.733 120.5
f 16/44/8 32/45/8 12/46/8
v 70.6634 866.602 -586.076
vt 70.6634 866.602
f 32/45/8 16/44/8 33/47/8
v -24.5487 866.602 -586.076
vt -24.5487 866.602
f 33/47/8 16/44/8 34/48/8
vt -24.5487 897
f 34/48/8 16/44/8 26/49/8

usemtl Gold
vt -613.313 866.602
vn -1 -1.33328e-015 -2.23093e-030
vt -586.076 120.5
vt -586.076 866.602
f 30/50/9 32/51/9 33/52/9
vt -613.313 120.5
f 32/51/9 30/50/9 31/53/9

usemtl Navy
vt 114.733 675.014
vn 0 1 0
vt 84.2166 766.264
vt 84.2166 675.014
f 9/54/10 17/55/10 19/56/10
vt -249.581 304.752
v -93.2892 47 -359.061
vt -93.2892 359.061
v -212.517 47 -519.764
vt -212.517 519.764
f 8/57/10 35/58/10 36/59/10
v -77.8682 47 -346.579
vt -77.8682 346.579
f 35/58/10 8/57/10 37/60/10
v -59.7418 47 -338.513
vt -59.7418 338.513
f 37/60/10 8/57/10 38/61/10
v -40.1455 47 -335.413
vt -40.1455 335.413
f 38/61/10 8/57/10 39/62/10
vt 166.669 304.752
f 39/62/10 8/57/10 5/63/10
v -104.954 47 -375.11
vt -104.954 375.11
f 36/59/10 35/58/10 40/64/10
v -112.068 47 -393.631
vt -112.068 393.631
f 36/59/10 40/64/10 41/65/10
v -114.146 47 -413.362
vt -114.146 413.362
f 36/59/10 41/65/10 42/66/10
v -20.4146 47 -337.491
vt -20.4146 337.491
f 39/62/10 5/63/10 43/67/10
v -1.89381 47 -344.604
vt -1.89381 344.604
f 43/67/10 5/63/10 44/68/10
v 14.1548 47 -356.269
vt 14.1548 356.269
f 44/68/10 5/63/10 45/69/10
v 26.6374 47 -371.69
vt 26.6374 371.69
f 45/69/10 5/63/10 46/70/10
v 34.7034 47 -389.817
vt 34.7034 389.817
f 46/70/10 5/63/10 47/71/10
v 37.8032 47 -409.413
vt 37.8032 409.413
f 47/71/10 5/63/10 48/72/10
vt 114.733 519.764
f 48/72/10 5/63/10 11/73/10
f 11/73/10 5/63/10 9/54/10
vt 166.669 810.752
f 9/54/10 5/63/10 4/74/10
vt -249.581 810.752
v -184.533 47 -766.264
vt -184.533 766.264
f 1/75/10 49/76/10 4/74/10
v -212.517 47 -675.014
vt -212.517 675.014
f 49/76/10 1/75/10 50/77/10
f 50/77/10 1/75/10 8/57/10
f 50/77/10 8/57/10 36/59/10
v -184.533 47 -675.014
vt -184.533 675.014
f 49/76/10 50/77/10 51/78/10
f 4/74/10 49/76/10 17/55/10
f 4/74/10 17/55/10 9/54/10
v -55.9277 47 -485.284
vt -55.9277 485.284
f 36/59/10 52/79/10 11/73/10
v -74.4485 47 -478.17
vt -74.4485 478.17
f 52/79/10 36/59/10 53/80/10
v -90.4971 47 -466.505
vt -90.4971 466.505
f 53/80/10 36/59/10 54/81/10
v -102.98 47 -451.084
vt -102.98 451.084
f 54/81/10 36/59/10 55/82/10
v -111.046 47 -432.958
vt -111.046 432.958
f 55/82/10 36/59/10 56/83/10
f 56/83/10 36/59/10 42/66/10
v -36.1968 47 -487.362
vt -36.1968 487.362
f 11/73/10 52/79/10 57/84/10
v -16.6005 47 -484.262
vt -16.6005 484.262
f 11/73/10 57/84/10 58/85/10
v 1.52586 47 -476.196
vt 1.52586 476.196
f 11/73/10 58/85/10 59/86/10
v 16.9469 47 -463.713
vt 16.9469 463.713
f 11/73/10 59/86/10 60/87/10
v 28.6117 47 -447.665
vt 28.6117 447.665
f 11/73/10 60/87/10 61/88/10
v 35.7254 47 -429.144
vt 35.7254 429.144
f 11/73/10 61/88/10 62/89/10
f 11/73/10 62/89/10 48/72/10

usemtl Gold
vt -613.313 897
vn -1 0 0
vt -613.313 120.5
vt -586.076 897
f 24/90/11 28/91/11 25/92/11
v -212.517 120.5 -586.076
vt -586.076 120.5
vt -519.764 47
v -212.517 120.5 -519.764
vt -519.764 120.5
f 63/93/11 36/94/11 64/95/11
vt -675.014 47
f 36/94/11 63/93/11 50/96/11
f 50/96/11 63/93/11 28/91/11
f 28/91/11 63/93/11 25/92/11
v -212.517 120.5 -675.014
vt -675.014 120.5
f 50/96/11 28/91/11 65/97/11

usemtl Chartreuse
vt 212.517 120.5
vt 184.533 47
vt 212.517 47
f 65/98/1 51/99/1 50/100/1
v -184.533 80.5 -675.014
vt 184.533 80.5
f 51/99/1 65/98/1 66/101/1
vt -84.2166 80.5
f 66/101/1 65/98/1 18/102/1
vt -114.733 47
vt -84.2166 47
f 18/102/1 9/103/1 19/104/1
vt -114.733 120.5
f 9/103/1 18/102/1 15/105/1
f 15/105/1 18/102/1 65/98/1

usemtl Chartreuse
v -184.533 80.5 -766.264
f 18/56/10 67/76/10 66/78/10
f 67/76/10 18/56/10 20/55/10

usemtl Chartreuse
f 67/101/1 17/104/1 49/99/1
f 17/104/1 67/101/1 20/102/1

usemtl SkyBlue
vt -766.264 80.5
vt -675.014 80.5
f 67/106/11 51/96/11 66/107/11
vt -766.264 47
f 51/96/11 67/106/11 49/108/11

usemtl Gold
vt 613.313 120.5
vn 1 -3.80936e-017 -5.65905e-032
v -169.6 866.602 -586.076
vt 586.076 866.602
v -169.6 120.5 -586.076
f 27/109/12 68/110/12 69/20/12
vt 613.313 866.602
f 68/110/12 27/109/12 29/111/12

usemtl Chartreuse
vt -169.6 866.602
vn -4.45891e-015 4.45195e-016 1
vt -212.517 120.5
vt -169.6 120.5
f 68/112/13 63/113/13 69/114/13
vt -212.517 897
f 63/113/13 68/112/13 25/115/13
v -73.7336 866.602 -586.076
vt -73.7336 866.602
f 25/115/13 68/112/13 70/116/13
vt -73.7336 897
f 25/115/13 70/116/13 22/117/13

usemtl Chartreuse
vt 114.733 120.5
vt -212.517 47
vt 114.733 47
f 10/118/3 36/119/3 11/120/3
vt -212.517 120.5
f 36/119/3 10/118/3 64/121/3

usemtl Chartreuse
vt 70.6634 613.313
vn 1.0822e-016 1 -1.13914e-015
vt -169.6 613.313
vt 70.6634 586.076
f 31/122/14 27/123/14 32/124/14
vt 114.733 519.764
vt -212.517 586.076
vt -212.517 519.764
f 10/125/14 63/126/14 64/127/14
vt -169.6 586.076
f 63/126/14 10/125/14 69/128/14
f 69/128/14 10/125/14 27/123/14
f 27/123/14 10/125/14 32/124/14
vt 114.733 586.076
f 32/124/14 10/125/14 12/129/14

usemtl Chartreuse
v -73.7336 866.602 -549.104
vt 73.7336 549.104
vn 0 -1 0
v -24.5487 866.602 -469.576
vt 24.5487 469.576
v -73.7336 866.602 -469.576
vt 73.7336 469.576
f 71/130/15 72/131/15 73/132/15
v -24.5487 866.602 -549.104
vt 24.5487 549.104
f 72/131/15 71/130/15 74/133/15

usemtl Gold
vt -586.076 897
vn -1 1.70321e-016 -3.5401e-015
vt -469.576 866.602
vt -469.576 897
f 22/134/16 73/135/16 23/136/16
vt -549.104 866.602
f 73/135/16 22/134/16 71/137/16
v -73.7336 866.602 -573.824
vt -573.824 866.602
f 71/137/16 22/134/16 75/138/16
vt -586.076 866.602
f 75/138/16 22/134/16 70/139/16

usemtl Chartreuse
vt 73.7336 573.824
v -51.0158 866.602 -562.173
vt 51.0158 562.173
v -51.0584 866.602 -561.849
vt 51.0584 561.849
f 75/140/15 76/141/15 77/142/15
v -50.891 866.602 -562.474
vt 50.891 562.474
f 76/141/15 75/140/15 78/143/15
v -50.6923 866.602 -562.733
vt 50.6923 562.733
f 78/143/15 75/140/15 79/144/15
v -50.4334 866.602 -562.932
vt 50.4334 562.932
f 79/144/15 75/140/15 80/145/15
v -24.5487 866.602 -573.824
vt 24.5487 573.824
f 80/145/15 75/140/15 81/146/15
v -50.1319 866.602 -563.056
vt 50.1319 563.056
f 80/145/15 81/146/15 82/147/15
v -49.8084 866.602 -563.099
vt 49.8084 563.099
f 82/147/15 81/146/15 83/148/15
v -49.4849 866.602 -563.056
vt 49.4849 563.056
f 83/148/15 81/146/15 84/149/15
v -49.1834 866.602 -562.932
vt 49.1834 562.932
f 84/149/15 81/146/15 85/150/15
v -48.9245 866.602 -562.733
vt 48.9245 562.733
f 85/150/15 81/146/15 86/151/15
v -48.7259 866.602 -562.474
vt 48.7259 562.474
f 86/151/15 81/146/15 87/152/15
v -48.601 866.602 -562.173
vt 48.601 562.173
f 87/152/15 81/146/15 88/153/15
v -48.5584 866.602 -561.849
vt 48.5584 561.849
f 88/153/15 81/146/15 89/154/15
f 89/154/15 81/146/15 74/133/15
v -50.4334 866.602 -560.766
vt 50.4334 560.766
f 71/130/15 90/155/15 74/133/15
f 90/155/15 71/130/15 75/140/15
v -50.6923 866.602 -560.965
vt 50.6923 560.965
f 90/155/15 75/140/15 91/156/15
v -50.891 866.602 -561.224
vt 50.891 561.224
f 91/156/15 75/140/15 92/157/15
v -51.0158 866.602 -561.525
vt 51.0158 561.525
f 92/157/15 75/140/15 93/158/15
f 93/158/15 75/140/15 77/142/15
v -50.1319 866.602 -560.642
vt 50.1319 560.642
f 74/133/15 90/155/15 94/159/15
v -49.8084 866.602 -560.599
vt 49.8084 560.599
f 74/133/15 94/159/15 95/160/15
v -49.4849 866.602 -560.642
vt 49.4849 560.642
f 74/133/15 95/160/15 96/161/15
v -49.1834 866.602 -560.766
vt 49.1834 560.766
f 74/133/15 96/161/15 97/162/15
v -48.9245 866.602 -560.965
vt 48.9245 560.965
f 74/133/15 97/162/15 98/163/15
v -48.7259 866.602 -561.224
vt 48.7259 561.224
f 74/133/15 98/163/15 99/164/15
v -48.601 866.602 -561.525
vt 48.601 561.525
f 74/133/15 99/164/15 100/165/15
f 74/133/15 100/165/15 89/154/15

usemtl Chartreuse
vt 549.104 866.602
vn 1 5.7448e-018 4.63506e-015
vt 469.576 897
vt 469.576 866.602
f 74/166/17 21/167/17 72/168/17
vt 586.076 897
f 21/167/17 74/166/17 26/169/17
vt 573.824 866.602
f 26/169/17 74/166/17 81/170/17
vt 586.076 866.602
f 26/169/17 81/170/17 34/171/17

usemtl Chartreuse
vt -24.5487 897
vn -4.62284e-015 0 1
vt -73.7336 866.602
vt -24.5487 866.602
f 21/172/18 73/173/18 72/174/18
vt -73.7336 897
f 73/173/18 21/172/18 23/175/18

usemtl Chartreuse
vt -70.6634 613.313
vn 4.54541e-016 -1 -1.85583e-015
vt 169.6 586.076
vt 169.6 613.313
f 30/176/19 68/177/19 29/178/19
vt 73.7336 586.076
f 68/177/19 30/176/19 70/179/19
vt 24.5487 586.076
f 70/179/19 30/176/19 34/180/19
vt 24.5487 573.824
f 70/179/19 34/180/19 81/181/19
vt -70.6634 586.076
f 34/180/19 30/176/19 33/182/19
vt 73.7336 573.824
f 81/181/19 75/183/19 70/179/19

usemtl Chartreuse
vt -169.6 613.313
vn -7.77452e-017 1 1.15124e-015
vt -212.517 675.014
vt -212.517 613.313
f 27/184/20 65/185/20 28/186/20
vt 114.733 675.014
f 65/185/20 27/184/20 15/187/20
vt 70.6634 613.313
f 15/187/20 27/184/20 31/188/20
vt 114.733 613.313
f 15/187/20 31/188/20 13/189/20

l 7 3

l 3 2

l 2 6

l 6 7

l 1 4

l 4 5

l 5 8

l 8 1

l 2 4

l 3 1

l 6 5

l 7 8

l 52 53

l 53 54

l 54 55

l 55 56

l 56 42

l 42 41

l 41 40

l 40 35

l 35 37

l 37 38

l 38 39

l 39 43

l 43 44

l 44 45

l 45 46

l 46 47

l 47 48

l 48 62

l 62 61

l 61 60

l 60 59

l 59 58

l 58 57

l 57 52

l 50 36

l 36 11

l 11 9

l 9 19

l 65 28

l 10 12

l 15 65

l 36 64

l 50 65

l 11 10

l 9 15

l 49 51

l 19 17

l 17 49

l 51 50

l 18 66

l 18 20

l 20 67

l 67 66

l 19 18

l 51 66

l 17 20

l 49 67

l 31 32

l 32 12

l 13 31

l 13 15

l 63 64

l 69 63

l 27 28

l 69 27

l 16 14

l 14 24

l 26 16

l 13 14

l 12 16

l 32 33

l 22 25

l 24 25

l 69 68

l 63 25

l 28 24

l 68 70

l 68 29

l 30 33

l 70 22

l 26 34

l 34 33

l 23 21

l 73 23

l 21 72

l 22 23

l 26 21

l 64 10

l 71 73

l 74 81

l 71 74

l 74 72

l 73 72

l 70 75

l 75 71

l 34 81

l 81 75

l 89 100

l 88 89

l 87 88

l 86 87

l 85 86

l 84 85

l 83 84

l 82 83

l 80 82

l 79 80

l 92 93

l 78 79

l 76 78

l 77 76

l 93 77

l 91 92

l 90 91

l 94 90

l 95 94

l 96 95

l 97 96

l 98 97

l 99 98

l 100 99

l 29 30

l 30 31

l 31 27

l 27 29

